<svg width="18" height="18" viewBox="0 0 18 18" fill="none" xmlns="http://www.w3.org/2000/svg">
<path d="M11.9318 2.08119L15.9188 6.06857C16.7786 6.92807 16.5431 8.37744 15.456 8.92119L11.5013 10.8982C11.3917 10.953 11.308 11.0486 11.268 11.1644L10.2615 14.0782C10.0125 14.7982 9.096 15.0093 8.5575 14.4708L6.375 12.2883L2.913 15.7499H2.25V15.0873L5.712 11.6249L3.5295 9.44244C2.99062 8.90394 3.20175 7.98744 3.92175 7.73844L6.8355 6.73194C6.95139 6.69189 7.04697 6.60802 7.10175 6.49832L9.07875 2.54432C9.6225 1.45682 11.0719 1.22169 11.9318 2.08119Z" fill="white"/>
</svg>
