<svg width="18" height="18" viewBox="0 0 18 18" fill="none" xmlns="http://www.w3.org/2000/svg">
<path d="M17.5 0C17.7761 0 18 0.223858 18 0.5V5C18 5.27614 17.7761 5.5 17.5 5.5C17.2239 5.5 17 5.27614 17 5V1.70703L10 8.70703L9.29297 8L16.293 1H13C12.7239 1 12.5 0.776142 12.5 0.5C12.5 0.223858 12.7239 0 13 0H17.5Z" fill="#BDBDC3"/>
<path d="M0.5 18C0.223858 18 0 17.7761 0 17.5V13C0 12.7239 0.223858 12.5 0.5 12.5C0.776143 12.5 1 12.7239 1 13V16.293L8 9.29297L8.70703 10L1.70703 17H5C5.27614 17 5.5 17.2239 5.5 17.5C5.5 17.7761 5.27614 18 5 18H0.5Z" fill="#BDBDC3"/>
</svg>
