<svg width="16" height="16" viewBox="0 0 16 16" fill="none" xmlns="http://www.w3.org/2000/svg">
<path d="M12.7729 8.00002L7.59957 13.5821C7.55698 13.6271 7.52331 13.6805 7.5005 13.7392C7.4777 13.798 7.46621 13.8609 7.46672 13.9243C7.46722 13.9877 7.4797 14.0504 7.50343 14.1087C7.52716 14.1671 7.56167 14.2199 7.60497 14.2641C7.64827 14.3084 7.69949 14.3431 7.75568 14.3665C7.81186 14.3898 7.8719 14.4011 7.9323 14.3999C7.9927 14.3987 8.05228 14.385 8.10758 14.3594C8.16288 14.3339 8.2128 14.2971 8.25447 14.2511L13.7373 8.33455C13.8203 8.24499 13.8667 8.12497 13.8667 8.00002C13.8667 7.87507 13.8203 7.75505 13.7373 7.6655L8.25446 1.74891C8.2128 1.70297 8.16287 1.66617 8.10757 1.64063C8.05228 1.61509 7.9927 1.60132 7.9323 1.60011C7.8719 1.5989 7.81186 1.61028 7.75568 1.6336C7.69949 1.65691 7.64827 1.69169 7.60497 1.73592C7.56167 1.78016 7.52716 1.83297 7.50343 1.8913C7.47969 1.94964 7.46722 2.01233 7.46671 2.07576C7.46621 2.13919 7.4777 2.20209 7.5005 2.26083C7.52331 2.31957 7.55698 2.37298 7.59957 2.41796L12.7729 8.00002Z" fill="#BDBDC3"/>
</svg>
