<svg width="12" height="12" viewBox="0 0 12 12" fill="none" xmlns="http://www.w3.org/2000/svg">
<path d="M11.0996 6C11.0996 3.27146 8.95726 1.04297 6.2627 0.90625L6 0.900391C3.27145 0.900391 1.04296 3.04273 0.90625 5.7373L0.900391 6C0.900397 8.81664 3.18336 11.0996 6 11.0996V12C2.6863 12 6.70047e-06 9.3137 0 6C0 2.6863 2.6863 0 6 0C9.3137 6.70025e-06 12 2.6863 12 6C12 7.04385 11.7324 8.02491 11.2637 8.87988L11.9248 11.8672L9.20312 11.0713C8.27602 11.6581 7.17837 12 6 12V11.0996C7.00161 11.0996 7.93312 10.8097 8.72168 10.3105L9.06543 10.0938L9.45605 10.207L10.7168 10.5752L10.3115 8.74414L10.4746 8.44727C10.8231 7.81167 11.0409 7.09451 11.0898 6.33008L11.0996 6Z" fill="#3269FF"/>
<path d="M9.9502 4.5498V5.4502H2.5498V4.5498H9.9502Z" fill="#3269FF"/>
<path d="M8.4502 7.0498V7.9502H2.5498V7.0498H8.4502Z" fill="#3269FF"/>
</svg>
