<svg width="21" height="21" viewBox="0 0 21 21" fill="none" xmlns="http://www.w3.org/2000/svg">
<path d="M19.425 10.5C19.425 5.57086 15.4291 1.575 10.5 1.575C5.57086 1.575 1.575 5.57086 1.575 10.5C1.575 15.4291 5.57086 19.425 10.5 19.425V21C4.70101 21 0 16.299 0 10.5C0 4.70101 4.70101 0 10.5 0C16.299 0 21 4.70101 21 10.5C21 16.299 16.299 21 10.5 21V19.425C15.4291 19.425 19.425 15.4291 19.425 10.5Z" fill="#BDBDC3"/>
<path d="M16.5375 9.71252V11.2875H3.9375V9.71252H16.5375Z" fill="#BDBDC3"/>
<path d="M11.0254 16.8L9.45039 16.8L9.45039 4.19995L11.0254 4.19995L11.0254 16.8Z" fill="#BDBDC3"/>
</svg>
