<svg width="24" height="24" viewBox="0 0 24 24" fill="none" xmlns="http://www.w3.org/2000/svg">
<path d="M11.0625 20C11.0625 20 9.625 20 9.625 18.5833C9.625 17.1667 11.0625 12.9167 16.8125 12.9167C22.5625 12.9167 24 17.1667 24 18.5833C24 20 22.5625 20 22.5625 20H11.0625ZM16.8125 11.5C17.9562 11.5 19.0531 11.0522 19.8619 10.2552C20.6706 9.45817 21.125 8.37717 21.125 7.25C21.125 6.12283 20.6706 5.04183 19.8619 4.2448C19.0531 3.44777 17.9562 3 16.8125 3C15.6688 3 14.5719 3.44777 13.7631 4.2448C12.9544 5.04183 12.5 6.12283 12.5 7.25C12.5 8.37717 12.9544 9.45817 13.7631 10.2552C14.5719 11.0522 15.6688 11.5 16.8125 11.5ZM8.498 20C8.285 19.5577 8.17873 19.0728 8.1875 18.5833C8.1875 16.6637 9.165 14.6875 10.9705 13.3133C10.0694 13.0391 9.13046 12.9053 8.1875 12.9167C2.4375 12.9167 1 17.1667 1 18.5833C1 20 2.4375 20 2.4375 20H8.498ZM7.46875 11.5C8.42187 11.5 9.33596 11.1269 10.0099 10.4627C10.6839 9.79848 11.0625 8.89764 11.0625 7.95833C11.0625 7.01902 10.6839 6.11819 10.0099 5.454C9.33596 4.78981 8.42187 4.41667 7.46875 4.41667C6.51563 4.41667 5.60154 4.78981 4.92759 5.454C4.25363 6.11819 3.875 7.01902 3.875 7.95833C3.875 8.89764 4.25363 9.79848 4.92759 10.4627C5.60154 11.1269 6.51563 11.5 7.46875 11.5Z" fill="#83ABFF"/>
</svg>
