<svg width="24" height="24" viewBox="0 0 24 24" fill="none" xmlns="http://www.w3.org/2000/svg">
<path d="M14.5474 19.2874C14.4442 20.0017 14.0871 20.6549 13.5415 21.1274C12.9958 21.5998 12.2983 21.8598 11.5766 21.8598C10.8548 21.8598 10.1573 21.5998 9.61166 21.1274C9.06605 20.6549 8.70892 20.0017 8.6057 19.2874H14.5474ZM11.5766 3C13.4713 2.99982 15.2915 3.73776 16.6512 5.05729C18.0109 6.37682 18.8031 8.17414 18.8597 10.068V10.2866H18.8631V13.8111L20.0751 16.9346C20.1077 17.0191 20.1297 17.1066 20.1411 17.1969L20.1497 17.3314C20.1498 17.6032 20.0491 17.8654 19.867 18.0671C19.6849 18.2689 19.4344 18.3958 19.164 18.4234L19.0526 18.4286H4.09798C3.92897 18.4287 3.76221 18.3898 3.61072 18.3148C3.45923 18.2399 3.32709 18.131 3.22463 17.9966C3.12216 17.8622 3.05213 17.7059 3.02 17.54C2.98788 17.3741 2.99452 17.2029 3.03941 17.04L3.07541 16.9337L4.28913 13.8103V10.2874C4.2889 9.33037 4.47724 8.38264 4.84339 7.49838C5.20954 6.61413 5.74632 5.81068 6.42306 5.13394C7.09981 4.45719 7.90326 3.92041 8.78751 3.55426C9.67176 3.18812 10.6195 2.99977 11.5766 3Z" fill="#BDBDC3"/>
</svg>
