<svg width="21" height="21" viewBox="0 0 21 21" fill="none" xmlns="http://www.w3.org/2000/svg">
<path d="M13.6373 3.54987L12.2178 4.96927L16.0306 8.78172L17.4501 7.36232C18.1833 6.62915 18.1833 5.44143 17.4501 4.70827L16.2945 3.54987C15.5613 2.81671 14.3735 2.81671 13.6403 3.54987H13.6373ZM11.555 5.63205L4.71846 12.471C4.41344 12.776 4.19055 13.1543 4.06736 13.5678L3.02913 17.0958C2.9558 17.3451 3.02326 17.6119 3.2051 17.7937C3.38694 17.9756 3.65383 18.043 3.90019 17.9726L7.42844 16.9345C7.84198 16.8113 8.22032 16.5884 8.52534 16.2834L15.3677 9.4445L11.555 5.63205Z" fill="#616167"/>
</svg>
