<svg width="18" height="18" viewBox="0 0 18 18" fill="none" xmlns="http://www.w3.org/2000/svg">
<rect x="0.6" y="6.6" width="3.8" height="9.8" stroke="#BDBDC3" stroke-width="1.2"/>
<mask id="path-2-inside-1_7482_15790" fill="white">
<path d="M12 1C12.5523 1 13 1.44772 13 2V6H17C17.5523 6 18 6.44772 18 7V13C18 15.2091 16.2091 17 14 17H6V6L10 1H12Z"/>
</mask>
<path d="M13 6H11.8V7.2H13V6ZM18 7H19.2H18ZM18 13H19.2H18ZM14 17V18.2V17ZM6 17H4.8V18.2H6V17ZM6 6L5.06296 5.25037L4.8 5.57906V6H6ZM10 1V-0.2H9.42325L9.06296 0.250366L10 1ZM12 1V2.2C11.8895 2.2 11.8 2.11046 11.8 2H13H14.2C14.2 0.784974 13.215 -0.2 12 -0.2V1ZM13 2H11.8V6H13H14.2V2H13ZM13 6V7.2H17V6V4.8H13V6ZM17 6V7.2C16.8895 7.2 16.8 7.11046 16.8 7H18H19.2C19.2 5.78497 18.215 4.8 17 4.8V6ZM18 7H16.8V13H18H19.2V7H18ZM18 13H16.8C16.8 14.5464 15.5464 15.8 14 15.8V17V18.2C16.8719 18.2 19.2 15.8719 19.2 13H18ZM14 17V15.8H6V17V18.2H14V17ZM6 17H7.2V6H6H4.8V17H6ZM6 6L6.93704 6.74963L10.937 1.74963L10 1L9.06296 0.250366L5.06296 5.25037L6 6ZM10 1V2.2H12V1V-0.2H10V1Z" fill="#BDBDC3" mask="url(#path-2-inside-1_7482_15790)"/>
</svg>
