<svg width="21" height="21" viewBox="0 0 21 21" fill="none" xmlns="http://www.w3.org/2000/svg">
<path d="M8.3125 4.42857V3H12.6875V4.42857H8.3125ZM9.77083 12.2857H11.2292V8H9.77083V12.2857ZM10.5 18C9.60069 18 8.75292 17.8305 7.95667 17.4914C7.16042 17.1524 6.46479 16.6909 5.86979 16.1071C5.27479 15.5233 4.80399 14.8417 4.4574 14.0621C4.1108 13.2826 3.9375 12.4524 3.9375 11.5714C3.9375 10.6905 4.1108 9.86 4.4574 9.08C4.80399 8.3 5.27479 7.61857 5.86979 7.03571C6.46479 6.45286 7.16066 5.99167 7.9574 5.65214C8.75413 5.31262 9.60167 5.14286 10.5 5.14286C11.2535 5.14286 11.9766 5.2619 12.6693 5.5C13.362 5.73809 14.0122 6.08333 14.6198 6.53571L15.6406 5.53571L16.6615 6.53571L15.6406 7.53571C16.1024 8.13095 16.4549 8.76786 16.6979 9.44643C16.941 10.125 17.0625 10.8333 17.0625 11.5714C17.0625 12.4524 16.8892 13.2829 16.5426 14.0629C16.196 14.8429 15.7252 15.5243 15.1302 16.1071C14.5352 16.69 13.8393 17.1514 13.0426 17.4914C12.2459 17.8314 11.3983 18.0009 10.5 18Z" fill="#616167"/>
</svg>
