<svg width="24" height="24" viewBox="0 0 24 24" fill="none" xmlns="http://www.w3.org/2000/svg">
<path d="M4 20.33V10.1606C4 9.86113 4.06552 9.57761 4.19657 9.31008C4.32762 9.04254 4.50819 8.8222 4.73829 8.64904L10.8926 3.8779C11.2149 3.62597 11.5829 3.5 11.9966 3.5C12.4103 3.5 12.7806 3.62597 13.1074 3.8779L19.2617 8.64787C19.4926 8.82103 19.6731 9.04176 19.8034 9.31008C19.9345 9.57761 20 9.86113 20 10.1606V20.33C20 20.6436 19.8861 20.917 19.6583 21.1502C19.4305 21.3834 19.1634 21.5 18.8571 21.5H14.9897C14.7276 21.5 14.5082 21.4095 14.3314 21.2286C14.1547 21.0468 14.0663 20.8222 14.0663 20.5547V14.9751C14.0663 14.7075 13.9779 14.4833 13.8011 14.3023C13.6236 14.1206 13.4042 14.0297 13.1429 14.0297H10.8571C10.5958 14.0297 10.3768 14.1206 10.2 14.3023C10.0225 14.4833 9.93371 14.7075 9.93371 14.9751V20.5558C9.93371 20.8234 9.84533 21.0476 9.66857 21.2286C9.49181 21.4095 9.27276 21.5 9.01143 21.5H5.14286C4.83657 21.5 4.56952 21.3834 4.34171 21.1502C4.1139 20.917 4 20.6436 4 20.33Z" fill="#3269FF"/>
</svg>
