<svg width="20" height="20" viewBox="0 0 20 20" fill="none" xmlns="http://www.w3.org/2000/svg">
<path d="M10.568 10.1207L3.03601 11.2711C2.94942 11.2844 2.86815 11.3183 2.80039 11.3695C2.73263 11.4206 2.68077 11.4872 2.65001 11.5626L0.0530096 17.9408C-0.19499 18.5275 0.47401 19.0866 1.08801 18.8043L19.088 10.5543C19.2124 10.4971 19.317 10.4094 19.3901 10.3008C19.4632 10.1923 19.502 10.0672 19.502 9.93966C19.502 9.8121 19.4632 9.68705 19.3901 9.5785C19.317 9.46996 19.2124 9.3822 19.088 9.32504L1.08801 1.07504C0.47401 0.79362 -0.19499 1.35279 0.0530096 1.93854L2.65101 8.3167C2.68177 8.39208 2.73363 8.4587 2.80139 8.50987C2.86915 8.56104 2.95042 8.59496 3.03701 8.6082L10.569 9.75862C10.616 9.76549 10.6588 9.7875 10.6896 9.82068C10.7205 9.85386 10.7375 9.89605 10.7375 9.93966C10.7375 9.98328 10.7205 10.0255 10.6896 10.0586C10.6588 10.0918 10.616 10.1138 10.569 10.1207" fill="#BDBDC3"/>
</svg>
