<svg width="24" height="24" viewBox="0 0 24 24" fill="none" xmlns="http://www.w3.org/2000/svg">
<path d="M3 16.1177C3 14.8229 3.51425 13.5811 4.42969 12.6655L7.17578 9.92041L7.35156 9.75342C8.24729 8.94331 9.41449 8.4917 10.6279 8.4917L10.8691 8.49756C12.0755 8.55724 13.2204 9.06288 14.0791 9.92041L13.3721 10.6274L12.666 11.3354C12.1927 10.8628 11.572 10.5707 10.9121 10.5054L10.6279 10.4917C9.86365 10.4917 9.13064 10.7954 8.58984 11.3354L8.58887 11.3345L5.84375 14.0796C5.30339 14.6201 5 15.3534 5 16.1177L5.01367 16.4028C5.07924 17.0625 5.37098 17.6829 5.84375 18.1558C6.3843 18.6963 7.11836 18.9995 7.88281 18.9995C8.6471 18.9994 9.38046 18.6962 9.9209 18.1558L11.293 16.7837L11.3691 16.7144C11.7619 16.3943 12.341 16.4177 12.707 16.7837C13.0974 17.1742 13.0975 17.8073 12.707 18.1978L11.335 19.5698C10.4194 20.4853 9.17753 20.9994 7.88281 20.9995C6.58793 20.9995 5.34531 20.4854 4.42969 19.5698C3.57147 18.7115 3.06575 17.5664 3.00586 16.3599L3 16.1177ZM14.0791 9.92041C14.4696 10.3107 14.4703 10.9438 14.0801 11.3345C13.6899 11.7251 13.0568 11.7254 12.666 11.3354L14.0791 9.92041Z" fill="#83ABFF"/>
<path d="M19 7.88281C19 7.11836 18.6968 6.3843 18.1563 5.84375C17.6158 5.30335 16.8825 5.00005 16.1182 5C15.4493 5 14.8039 5.23212 14.291 5.65234L14.0801 5.84375L12.707 7.2168C12.3165 7.60703 11.6834 7.60722 11.293 7.2168C10.9026 6.82637 10.9028 6.19327 11.293 5.80273L12.666 4.42969L12.8408 4.2627C13.7365 3.45177 14.9043 3 16.1182 3C17.4129 3.00005 18.6548 3.51422 19.5703 4.42969C20.4859 5.34531 21 6.58793 21 7.88281L20.9942 8.12402C20.9384 9.25044 20.4943 10.3232 19.7373 11.1592L19.5703 11.335L16.8242 14.0801C15.9656 14.9376 14.8206 15.4423 13.6143 15.502L13.3731 15.5078C12.1597 15.5078 10.9924 15.057 10.0967 14.2471L9.92091 14.0801L9.85255 14.0039C9.53215 13.6115 9.55443 13.0324 9.91994 12.666C10.2859 12.2995 10.8658 12.2763 11.2588 12.5967L11.335 12.665L11.5459 12.8564C12.059 13.2763 12.7043 13.5078 13.3731 13.5078L13.6572 13.4941C14.3169 13.4288 14.9369 13.1374 15.4102 12.665L18.1563 9.91992C18.6291 9.44693 18.9209 8.82676 18.9863 8.16699L19 7.88281Z" fill="#83ABFF"/>
</svg>
