<svg width="21" height="21" viewBox="0 0 21 21" fill="none" xmlns="http://www.w3.org/2000/svg">
<g clip-path="url(#clip0_7482_15772)">
<path d="M10.6106 12.3063L4.94474 9.35978V15.9227C4.97354 15.9322 5.0031 15.9432 5.03366 15.9532C5.45976 16.0922 6.05084 16.277 6.71072 16.4618C8.06124 16.8401 9.59507 17.1859 10.6106 17.1859C11.6262 17.1859 13.16 16.8401 14.5105 16.4618C15.1704 16.277 15.7615 16.0922 16.1876 15.9532C16.2181 15.9432 16.2477 15.9322 16.2765 15.9227V9.35978L10.6106 12.3063ZM3.98561 6.83437L10.6106 10.2796L17.2347 6.83437L10.6106 3.96366L3.98561 6.83437ZM20.2001 13.5596H18.4558V8.22645L18.0207 8.45272V17.2302L17.4305 17.4397C17.4298 17.4399 17.4278 17.4413 17.4267 17.4417C17.4243 17.4425 17.4206 17.4431 17.4163 17.4446C17.4074 17.4477 17.3941 17.4526 17.3775 17.4584C17.3443 17.47 17.2957 17.4864 17.2337 17.5076C17.1097 17.5501 16.931 17.6105 16.7097 17.6827C16.2673 17.827 15.6522 18.0201 14.9636 18.213C13.6169 18.5902 11.8818 19 10.6106 19C9.33942 19 7.60436 18.5902 6.25764 18.213C5.56904 18.0201 4.95395 17.827 4.51153 17.6827C4.29028 17.6105 4.11159 17.5501 3.9875 17.5076C3.92557 17.4864 3.87697 17.47 3.84373 17.4584C3.8271 17.4526 3.8138 17.4477 3.80495 17.4446C3.80065 17.4431 3.79691 17.4425 3.79454 17.4417C3.79342 17.4413 3.79236 17.4399 3.7917 17.4397L3.20052 17.2302V8.45272L-0.199951 6.68484L10.2758 2.14462L10.6106 2L10.9455 2.14462L20.2001 6.15556V13.5596Z" fill="#616167"/>
</g>
<defs>
<clipPath id="clip0_7482_15772">
<rect width="21" height="21" fill="white"/>
</clipPath>
</defs>
</svg>
