<svg width="24" height="24" viewBox="0 0 24 24" fill="none" xmlns="http://www.w3.org/2000/svg">
<g clip-path="url(#clip0_7482_15776)">
<path d="M10.284 2.703C10.5307 2.18539 11.1506 1.96592 11.6684 2.21237L23.235 7.71905C23.7527 7.96561 23.9723 8.58474 23.7261 9.10256L19.1122 18.7937C18.8657 19.3116 18.2462 19.5322 17.7283 19.2857L6.16169 13.779C5.64381 13.5324 5.4236 12.9121 5.67017 12.3942L10.284 2.703ZM2.14082 5.61529C1.91621 5.05297 2.21842 4.41818 2.79651 4.23802L8.46195 2.47262C9.32688 2.20315 10.0974 3.09257 9.708 3.91056L6.24397 11.1866C5.85456 12.0046 4.67844 11.9671 4.34222 11.126L2.14082 5.61529ZM5.16325 6.2095C4.8758 6.81372 5.13236 7.53705 5.73654 7.82469C6.34071 8.1123 7.06394 7.85545 7.35172 7.2514C7.6394 6.64713 7.38269 5.92391 6.77843 5.63622C6.17415 5.34853 5.45094 5.60522 5.16325 6.2095Z" fill="#C5D9FF"/>
<path d="M2.49087 4.42271C2.51186 3.81756 3.04422 3.35834 3.64591 3.42637L11.4988 4.31448C11.7586 4.34386 11.9978 4.46987 12.1686 4.66785L20.9494 14.8473C21.324 15.2817 21.275 15.9374 20.8407 16.312L12.714 23.3221C12.2796 23.6968 11.6238 23.6491 11.2491 23.2148L2.46832 13.0353C2.29755 12.8373 2.20801 12.5822 2.21705 12.3209L2.49087 4.42271ZM5.0177 6.18434C4.51105 6.62139 4.45416 7.38609 4.89097 7.89287C5.32811 8.39964 6.09346 8.45609 6.60023 8.01895C7.10701 7.58181 7.16346 6.81647 6.72632 6.30969C6.28912 5.80324 5.52435 5.7473 5.0177 6.18434Z" fill="#83ABFF"/>
</g>
<defs>
<clipPath id="clip0_7482_15776">
<rect width="24" height="24" fill="white"/>
</clipPath>
</defs>
</svg>
