<svg width="11" height="11" viewBox="0 0 11 11" fill="none" xmlns="http://www.w3.org/2000/svg">
<path d="M9.5 5.5C9.5 7.70914 7.70914 9.5 5.5 9.5C3.29086 9.5 1.5 7.70914 1.5 5.5C1.5 3.29086 3.29086 1.5 5.5 1.5C7.70914 1.5 9.5 3.29086 9.5 5.5Z" fill="#34C759"/>
<path d="M9.5 5.5C9.5 3.29086 7.70914 1.5 5.5 1.5C3.29086 1.5 1.5 3.29086 1.5 5.5C1.5 7.70914 3.29086 9.5 5.5 9.5C7.70914 9.5 9.5 7.70914 9.5 5.5ZM11 5.5C11 8.53757 8.53757 11 5.5 11C2.46243 11 0 8.53757 0 5.5C0 2.46243 2.46243 0 5.5 0C8.53757 0 11 2.46243 11 5.5Z" fill="white"/>
</svg>
