<svg width="18" height="18" viewBox="0 0 18 18" fill="none" xmlns="http://www.w3.org/2000/svg">
<path d="M11.8236 2.59777L15.4027 6.17754C15.6312 6.4061 15.8021 6.6857 15.9014 6.99328C16.0007 7.30086 16.0254 7.62762 15.9736 7.94665C15.9218 8.26567 15.795 8.56782 15.6035 8.8282C15.412 9.08858 15.1614 9.29974 14.8723 9.44427L11.2598 11.2505C11.1295 11.3155 11.0299 11.4289 10.9824 11.5665L9.91418 14.6567C9.86285 14.8052 9.77461 14.9383 9.65774 15.0433C9.54087 15.1484 9.39921 15.2221 9.24606 15.2574C9.09291 15.2927 8.9333 15.2885 8.78222 15.2451C8.63114 15.2018 8.49356 15.1208 8.38238 15.0097L6.07986 12.7073L2.7863 16H2V15.2122L5.29356 11.9203L2.99029 9.61785C2.87903 9.50669 2.79787 9.36905 2.75445 9.21789C2.71103 9.06673 2.70677 8.907 2.74209 8.75374C2.7774 8.60048 2.85112 8.45873 2.9563 8.3418C3.06149 8.22488 3.1947 8.13663 3.34339 8.08536L6.43369 7.01796C6.57126 6.97038 6.68471 6.87079 6.74969 6.74054L8.55596 3.12814C8.70047 2.83892 8.91165 2.58819 9.17211 2.39663C9.43256 2.20507 9.73482 2.07815 10.054 2.02635C10.3731 1.97455 10.7 1.99935 11.0077 2.0987C11.3153 2.19805 11.595 2.36911 11.8236 2.59777ZM14.6164 6.96381L11.0365 3.38479C10.9327 3.28087 10.8056 3.20311 10.6658 3.15791C10.526 3.11272 10.3775 3.1014 10.2325 3.12487C10.0874 3.14834 9.95006 3.20594 9.83165 3.29291C9.71325 3.37988 9.61721 3.49375 9.55144 3.62512L7.74518 7.23826C7.54992 7.62846 7.20962 7.92667 6.79717 8.06904L3.98652 9.04075L8.96024 14.0136L9.9305 11.2037C10.0729 10.7913 10.3711 10.451 10.7613 10.2558L14.3753 8.44882C14.5067 8.38313 14.6207 8.28715 14.7077 8.16878C14.7948 8.05042 14.8525 7.91306 14.876 7.76803C14.8996 7.623 14.8883 7.47445 14.8432 7.33462C14.798 7.1948 14.7203 7.0677 14.6164 6.96381Z" fill="white"/>
</svg>
