<svg width="17" height="17" viewBox="0 0 17 17" fill="none" xmlns="http://www.w3.org/2000/svg">
<path d="M16.0625 13.5C16.0625 14.3284 15.3909 15 14.5625 15H2.5C1.67157 15 1 14.3284 1 13.5V3H16.0625V13.5ZM8.7666 9.94238L8.74121 9.95215C8.72587 9.95925 8.71028 9.96519 8.69434 9.9707L8.67285 9.98047L8.61035 9.99219C8.59891 9.99403 8.58764 9.99604 8.57617 9.99707C8.56123 9.99843 8.54632 9.99902 8.53125 9.99902C8.51585 9.99902 8.50061 9.99849 8.48535 9.99707C8.47389 9.99601 8.46261 9.99405 8.45117 9.99219C8.43543 9.98962 8.4197 9.98744 8.4043 9.9834C8.3995 9.98213 8.39442 9.98188 8.38965 9.98047L8.36719 9.9707C8.35126 9.96517 8.33563 9.95927 8.32031 9.95215L8.2959 9.94238L2 6.58398V13.5C2 13.7761 2.22386 14 2.5 14H14.5625C14.8386 14 15.0625 13.7761 15.0625 13.5V6.58398L8.7666 9.94238ZM2 5.4502L2.2041 5.55957L8.53125 8.93359L14.8584 5.55957L15.0625 5.4502V4H2V5.4502Z" fill="#3269FF"/>
</svg>
