<svg width="24" height="24" viewBox="0 0 24 24" fill="none" xmlns="http://www.w3.org/2000/svg">
<mask id="mask0_7482_15785" style="mask-type:luminance" maskUnits="userSpaceOnUse" x="3" y="3" width="18" height="19">
<path d="M12 21.5C16.9707 21.5 21 17.4707 21 12.5C21 7.5293 16.9707 3.5 12 3.5C7.0293 3.5 3 7.5293 3 12.5C3 13.94 3.3384 15.3008 3.9387 16.5077C4.0989 16.8281 4.152 17.1944 4.0593 17.5409L3.5238 19.5443C3.47076 19.7426 3.47081 19.9513 3.52394 20.1495C3.57707 20.3478 3.68141 20.5285 3.82648 20.6737C3.97156 20.8189 4.15227 20.9233 4.35047 20.9766C4.54868 21.0298 4.7574 21.03 4.9557 20.9771L6.9591 20.4407C7.30684 20.3528 7.67472 20.3954 7.9932 20.5604C9.23785 21.1801 10.6096 21.5018 12 21.5Z" fill="white"/>
<path d="M14.7 12.5C14.7 12.7387 14.7948 12.9676 14.9636 13.1364C15.1324 13.3052 15.3613 13.4 15.6 13.4C15.8387 13.4 16.0676 13.3052 16.2364 13.1364C16.4052 12.9676 16.5 12.7387 16.5 12.5C16.5 12.2613 16.4052 12.0324 16.2364 11.8636C16.0676 11.6948 15.8387 11.6 15.6 11.6C15.3613 11.6 15.1324 11.6948 14.9636 11.8636C14.7948 12.0324 14.7 12.2613 14.7 12.5ZM11.1 12.5C11.1 12.7387 11.1948 12.9676 11.3636 13.1364C11.5324 13.3052 11.7613 13.4 12 13.4C12.2387 13.4 12.4676 13.3052 12.6364 13.1364C12.8052 12.9676 12.9 12.7387 12.9 12.5C12.9 12.2613 12.8052 12.0324 12.6364 11.8636C12.4676 11.6948 12.2387 11.6 12 11.6C11.7613 11.6 11.5324 11.6948 11.3636 11.8636C11.1948 12.0324 11.1 12.2613 11.1 12.5ZM7.5 12.5C7.5 12.7387 7.59482 12.9676 7.7636 13.1364C7.93239 13.3052 8.16131 13.4 8.4 13.4C8.63869 13.4 8.86761 13.3052 9.0364 13.1364C9.20518 12.9676 9.3 12.7387 9.3 12.5C9.3 12.2613 9.20518 12.0324 9.0364 11.8636C8.86761 11.6948 8.63869 11.6 8.4 11.6C8.16131 11.6 7.93239 11.6948 7.7636 11.8636C7.59482 12.0324 7.5 12.2613 7.5 12.5Z" fill="black"/>
</mask>
<g mask="url(#mask0_7482_15785)">
<path d="M1.2002 1.69995H22.8002V23.2999H1.2002V1.69995Z" fill="#3269FF"/>
</g>
</svg>
