<svg width="11" height="11" viewBox="0 0 11 11" fill="none" xmlns="http://www.w3.org/2000/svg">
<rect width="11" height="11" rx="5.5" fill="#3269FF"/>
<path d="M3.05 8L2.60375 5.23276C2.59208 5.23276 2.5789 5.23425 2.5642 5.23724C2.5495 5.24023 2.53643 5.24161 2.525 5.24138C2.37917 5.24138 2.25527 5.19104 2.1533 5.09035C2.05133 4.98966 2.00023 4.86759 2 4.72414C1.99977 4.58069 2.05087 4.45862 2.1533 4.35793C2.25573 4.25724 2.37963 4.2069 2.525 4.2069C2.67037 4.2069 2.79438 4.25724 2.89705 4.35793C2.99972 4.45862 3.0507 4.58069 3.05 4.72414C3.05 4.76437 3.04557 4.80172 3.0367 4.83621C3.02783 4.87069 3.01768 4.9023 3.00625 4.93103L4.1 5.41379L5.19375 3.93966C5.12958 3.89368 5.07708 3.83333 5.03625 3.75862C4.99542 3.68391 4.975 3.60345 4.975 3.51724C4.975 3.37356 5.0261 3.25138 5.1283 3.15069C5.2305 3.05 5.3544 2.99977 5.5 3C5.6456 3.00023 5.76961 3.05058 5.87205 3.15104C5.97448 3.25149 6.02547 3.37356 6.025 3.51724C6.025 3.60345 6.00458 3.68391 5.96375 3.75862C5.92291 3.83333 5.87041 3.89368 5.80625 3.93966L6.9 5.41379L7.99375 4.93103C7.98208 4.9023 7.97181 4.87069 7.96295 4.83621C7.95408 4.80172 7.94976 4.76437 7.95 4.72414C7.95 4.58046 8.0011 4.45828 8.1033 4.35759C8.2055 4.2569 8.3294 4.20667 8.475 4.2069C8.6206 4.20713 8.74461 4.25747 8.84705 4.35793C8.94948 4.45839 9.00046 4.58046 9 4.72414C8.99953 4.86782 8.94855 4.99 8.84705 5.09069C8.74555 5.19138 8.62153 5.24161 8.475 5.24138C8.46333 5.24138 8.45026 5.24 8.4358 5.23724C8.42133 5.23448 8.40815 5.23299 8.39625 5.23276L7.95 8H3.05Z" fill="white"/>
</svg>
