<svg width="18" height="18" viewBox="0 0 18 18" fill="none" xmlns="http://www.w3.org/2000/svg">
<path d="M7.6309 8.9998L13.4509 2.71999C13.4988 2.66938 13.5367 2.6093 13.5624 2.54322C13.588 2.47713 13.6009 2.40637 13.6004 2.33501C13.5998 2.26365 13.5858 2.19312 13.5591 2.1275C13.5324 2.06187 13.4935 2.00246 13.4448 1.95269C13.3961 1.90293 13.3385 1.8638 13.2753 1.83758C13.2121 1.81135 13.1445 1.79854 13.0766 1.7999C13.0086 1.80126 12.9416 1.81676 12.8794 1.84549C12.8172 1.87422 12.761 1.91563 12.7142 1.9673L6.54599 8.62346C6.45263 8.72421 6.40039 8.85924 6.40039 8.9998C6.40039 9.14037 6.45263 9.2754 6.54599 9.37615L12.7142 16.0323C12.761 16.084 12.8172 16.1254 12.8794 16.1541C12.9416 16.1829 13.0086 16.1983 13.0766 16.1997C13.1445 16.2011 13.2121 16.1883 13.2753 16.162C13.3385 16.1358 13.3961 16.0967 13.4448 16.0469C13.4935 15.9972 13.5324 15.9377 13.5591 15.8721C13.5858 15.8065 13.5998 15.736 13.6004 15.6646C13.6009 15.5932 13.588 15.5225 13.5624 15.4564C13.5367 15.3903 13.4988 15.3302 13.4509 15.2796L7.6309 8.9998Z" fill="white"/>
</svg>
